Coordinates
version=1
nRows=12
nColumns=33
inDegrees=yes

Units are S.I. units (second, meters, Newtons, ...)
Angles are in degrees.

endheader
time	ground_thorax_rot_x	ground_thorax_rot_y	ground_thorax_rot_z	ground_thorax_tx	ground_thorax_ty	ground_thorax_tz	clav_prot_r	clav_elev_r	scapula_abduction_r	scapula_elevation_r	scapula_upward_rot_r	scapula_winging_r	shoulder_elv_r	plane_of_elev_r	axial_rot_r	elbow_flexion_r	pro_sup_r	wrist_flex_r	wrist_dev_r	clav_prot_l	clav_elev_l	scapula_abduction_l	scapula_elevation_l	scapula_upward_rot_l	scapula_winging_l	shoulder_elv_l	plane_of_elev_l	axial_rot_l	elbow_flexion_l	pro_sup_l	wrist_flex_l	wrist_dev_l
      9.72000000	    -33.30547549	    -15.21024041	     27.00883732	   -177.73160037	    809.83420058	      5.13874559	      8.86455335	    -38.94396488	     43.72167144	    -45.00000000	     45.00000000	   2504.25634689	  -2638.87236987	    -90.00000000	    -71.64744965	   1801.71487360	   -107.52732370	     17.51269578	     13.36836607	     -2.09526139	     42.82927364	    -45.00000000	    -45.00000000	     33.98550976	  -2398.95843972	   -276.35970713	     10.62332158	    179.99999979	   1093.37665641	    215.54949705	     10.36147233	    -14.04576044
      9.73000000	    -32.95600489	    -15.15934789	     27.06993733	   -174.10125921	    807.60071759	      5.07945925	      8.95304937	    -38.89465177	     44.01937217	    -45.00000000	     45.00000000	   2504.41658449	  -2638.49255500	    -90.00000000	    -71.97006158	   1802.05783708	   -107.29308596	     16.91064771	     12.98516145	     -3.66073002	     41.87478928	    -45.00000000	    -45.00000000	     38.28109748	  -2397.83837153	   -274.95851019	     10.15140892	    179.99999979	   1093.90465360	    216.40658279	      9.40479578	    -12.97687191
      9.74000000	    -32.70590846	    -15.58268912	     27.55643857	   -170.39779575	    805.31315005	      5.00545682	      8.88360149	    -38.83958144	     44.33712469	    -45.00000000	     45.00000000	   2504.01493747	  -2638.88452193	    -90.00000000	    -71.52527201	   1801.78231952	   -106.95443157	     16.58529024	     12.78026373	     -3.35730048	     41.90918556	    -45.00000000	    -45.00000000	     38.20698914	  -2397.72917528	   -275.09688309	      9.91394815	    179.99999979	   1093.77423085	    217.05899565	      9.24166897	    -12.83349441
      9.75000000	    -32.50959702	    -15.88663963	     27.92866630	   -166.61929621	    802.97988020	      4.91853997	      9.07302517	    -38.80869412	     44.61903394	    -45.00000000	     45.00000000	   2503.60992256	  -2639.23660434	    -90.00000000	    -71.11760645	   1801.55461197	   -106.73035702	     16.39237533	     12.64553072	     -3.60898043	     41.95446224	    -45.00000000	    -45.00000000	     38.01954669	  -2397.52158122	   -275.49165672	      9.92443730	    179.99999979	   1093.79140182	    217.76155700	      9.07077948	    -12.63100650
      9.76000000	    -32.30401023	    -16.29191906	     28.33802018	   -162.76768526	    800.61287696	      4.82289879	      9.17395643	    -38.76272751	     44.88346664	    -45.00000000	     45.00000000	   2503.16190232	  -2639.66439080	    -90.00000000	    -70.63441347	   1801.22211143	   -106.51009292	     16.18809120	     12.50778636	     -3.52946541	     41.96350803	    -45.00000000	    -45.00000000	     37.98779318	  -2397.30889051	   -275.66045742	      9.80800517	    179.99999979	   1093.75992790	    218.43144344	      8.90105085	    -12.44847110
      9.77000000	    -32.14116168	    -16.69391185	     28.75215004	   -158.84073566	    798.22144278	      4.72167074	      9.30787398	    -38.74471719	     45.00000000	    -45.00000000	     45.00000000	   2502.68011647	  -2640.15661548	    -90.00000000	    -70.08599125	   1800.86234615	   -106.26934527	     15.97867404	     12.35148722	     -3.63469834	     42.02256115	    -45.00000000	    -45.00000000	     37.82364525	  -2397.08214426	   -275.95028578	      9.77647378	    179.99999979	   1093.74260032	    219.10912431	      8.68523109	    -12.21814336
      9.78000000	    -32.01863294	    -17.06056342	     29.12490521	   -154.81271479	    795.80753478	      4.62649378	      9.24383131	    -38.70503352	     45.00000000	    -45.00000000	     45.00000000	   2502.19765042	  -2640.80422718	    -90.00000000	    -69.38166297	   1800.43584238	   -106.01337739	     15.77967242	     12.20744626	     -3.62074969	     42.11038657	    -45.00000000	    -45.00000000	     37.66110724	  -2396.92460157	   -276.26825130	      9.66850616	    179.99999979	   1093.68382994	    219.74576819	      8.47030650	    -11.99853879
      9.79000000	    -31.91533399	    -17.46099385	     29.52258825	   -150.71080197	    793.39501135	      4.53302328	      9.00719148	    -38.60582847	     45.00000000	    -45.00000000	     45.00000000	   2501.63962488	  -2641.45333046	    -90.00000000	    -68.67675836	   1799.99210794	   -105.72522384	     15.51389244	     12.03223103	     -3.42084262	     42.12049010	    -45.00000000	    -45.00000000	     37.56977963	  -2396.80239388	   -276.50521767	      9.48279754	    179.99999979	   1093.60304133	    220.33453473	      8.22651143	    -11.75454315
      9.80000000	    -31.84672611	    -17.83777088	     29.81957153	   -146.57564613	    791.01228986	      4.43010221	      9.07602600	    -38.61925210	     45.00000000	    -45.00000000	     45.00000000	   2501.15484336	  -2642.11204897	    -90.00000000	    -67.96012494	   1799.55369057	   -105.34186556	     15.42883299	     11.93080937	     -3.60040809	     42.26019454	    -45.00000000	    -45.00000000	     37.32377197	  -2396.57733466	   -276.87972208	      9.49962460	    179.99999979	   1093.59992699	    220.98030004	      8.00409908	    -11.51682481
      9.81000000	    -32.00671175	    -18.18792339	     30.27920944	   -142.47967666	    788.70036729	      4.29952352	      9.65033373	    -38.84694188	     45.00000000	    -45.00000000	     45.00000000	   2500.14251413	  -2643.42936219	    -90.00000000	    -66.62173838	   1798.55919210	   -104.88139896	     14.92827237	     11.69621217	     -2.60086672	     43.42870023	    -45.00000000	    -44.38292561	     29.63863438	  -2398.90505804	   -280.52228204	      9.82400318	    179.99999979	   1092.06899291	    221.13592231	      8.47533340	    -12.38505680
      9.82000000	    -31.75508486	    -18.55451450	     30.41212787	   -138.44011599	    786.47622921	      4.14007734	      8.97818522	    -38.53404635	     45.00000000	    -45.00000000	     45.00000000	   2500.21113531	  -2643.10699967	    -90.00000000	    -66.86767618	   1798.85724170	   -104.14330927	     15.22541776	     11.63052954	     -3.60790267	     42.46386486	    -45.00000000	    -44.99733516	     36.78942111	  -2396.27204748	   -277.59778388	      9.31614249	    179.99999979	   1093.45601649	    222.42327105	      7.58671184	    -11.14954811
      9.83000000	    -31.66289308	    -18.81189764	     30.90224198	   -134.48527369	    784.36155343	      3.95126498	      8.71137047	    -38.47736278	     45.00000000	    -45.00000000	     45.00000000	   2499.57382704	  -2643.89911848	    -90.00000000	    -66.04578242	   1798.11713405	   -103.70045754	     15.13825807	     11.57699926	     -1.73485996	     42.99344137	    -45.00000000	    -43.50779359	     30.01789730	  -2399.08563537	   -280.07826502	      9.52841726	    179.99999979	   1092.17432530	    222.82986195	      8.29678967	    -12.18775645
